<?xml version="1.0" standalone="no"?>
<!DOCTYPE svg PUBLIC "-//W3C//DTD SVG 20010904//EN"
 "http://www.w3.org/TR/2001/REC-SVG-20010904/DTD/svg10.dtd">
<svg version="1.0" xmlns="http://www.w3.org/2000/svg"
 width="400.000000pt" height="400.000000pt" viewBox="0 0 400.000000 400.000000"
 preserveAspectRatio="xMidYMid meet">
<metadata>
Created by potrace 1.10, written by Peter Selinger 2001-2011
</metadata>
<g transform="translate(0.000000,400.000000) scale(0.050000,-0.050000)"
fill="#000000" stroke="none">
<path d="M3800 6515 l0 -65 -395 -148 c-217 -82 -433 -165 -480 -184 l-85 -37
0 -150 0 -151 -530 0 -530 0 0 -370 0 -370 -100 0 -100 0 0 -1036 0 -1036 -96
-94 -95 -94 -145 0 -144 0 0 -590 0 -590 308 0 308 0 -49 153 c-96 302 -89
463 22 515 53 25 69 45 66 78 -4 38 6 45 72 50 108 9 140 -6 114 -53 -17 -33
-11 -42 41 -64 143 -59 146 -320 9 -644 -14 -33 10 -35 357 -35 l372 0 0 -130
0 -130 490 0 490 0 0 511 0 510 305 -5 305 -6 5 -505 6 -505 489 0 490 0 0
130 0 130 372 0 c347 0 371 2 357 35 -39 93 -91 309 -102 427 -12 135 35 218
125 218 39 0 54 38 27 71 -31 38 9 54 114 45 67 -5 76 -12 72 -51 -4 -35 12
-54 66 -79 111 -53 118 -211 22 -513 l-49 -153 308 0 308 0 0 590 0 590 -146
0 -146 0 -94 96 -94 95 0 1035 0 1034 -100 0 -100 0 0 370 0 370 -530 0 -530
0 0 155 0 155 -480 180 -480 180 0 65 0 65 -210 0 -210 0 0 -65z m880 -540
c170 -62 191 -75 196 -122 l7 -53 -873 0 -873 0 7 53 c6 50 31 62 436 207
l429 154 241 -85 c132 -47 326 -116 430 -154z m-2200 -2115 l0 -1060 -160 0
-160 0 0 1060 0 1060 160 0 160 0 0 -1060z m564 1015 c3 -25 4 -502 1 -1060
l-6 -1015 -159 0 -160 0 0 1060 0 1060 159 0 c149 0 159 -3 165 -45z m566
-1015 l0 -1050 -165 -6 -165 -6 0 1062 0 1062 165 -6 165 -6 0 -1050z m560 0
l0 -1050 -165 -6 -165 -6 0 1048 c0 576 6 1054 14 1061 8 8 82 12 165 9 l151
-6 0 -1050z m570 0 l0 -1060 -170 0 -170 0 0 1047 c0 575 6 1052 13 1060 8 7
84 13 170 13 l157 0 0 -1060z m560 -1 l0 -1061 -160 6 -160 6 -1 1040 c0 572
0 1047 1 1055 0 8 72 15 160 15 l160 0 0 -1061z m560 1 l0 -1060 -160 0 -160
0 0 1060 0 1060 160 0 160 0 0 -1060z"/>
</g>
</svg>
