<?xml version="1.0" standalone="no"?><svg xmlns="http://www.w3.org/2000/svg" viewBox="0 0 1440 320"><path fill="#000000" fill-opacity="1" d="M0,64L6.9,74.7C13.7,85,27,107,41,112C54.9,117,69,107,82,128C96,149,110,203,123,213.3C137.1,224,151,192,165,192C178.3,192,192,224,206,218.7C219.4,213,233,171,247,154.7C260.6,139,274,149,288,165.3C301.7,181,315,203,329,197.3C342.9,192,357,160,370,154.7C384,149,398,171,411,192C425.1,213,439,235,453,229.3C466.3,224,480,192,494,154.7C507.4,117,521,75,535,64C548.6,53,562,75,576,80C589.7,85,603,75,617,106.7C630.9,139,645,213,658,245.3C672,277,686,267,699,224C713.1,181,727,107,741,64C754.3,21,768,11,782,26.7C795.4,43,809,85,823,106.7C836.6,128,850,128,864,112C877.7,96,891,64,905,90.7C918.9,117,933,203,946,202.7C960,203,974,117,987,74.7C1001.1,32,1015,32,1029,64C1042.3,96,1056,160,1070,165.3C1083.4,171,1097,117,1111,96C1124.6,75,1138,85,1152,74.7C1165.7,64,1179,32,1193,26.7C1206.9,21,1221,43,1234,53.3C1248,64,1262,64,1275,101.3C1289.1,139,1303,213,1317,256C1330.3,299,1344,309,1358,288C1371.4,267,1385,213,1399,202.7C1412.6,192,1426,224,1433,240L1440,256L1440,320L1433.1,320C1426.3,320,1413,320,1399,320C1385.1,320,1371,320,1358,320C1344,320,1330,320,1317,320C1302.9,320,1289,320,1275,320C1261.7,320,1248,320,1234,320C1220.6,320,1207,320,1193,320C1179.4,320,1166,320,1152,320C1138.3,320,1125,320,1111,320C1097.1,320,1083,320,1070,320C1056,320,1042,320,1029,320C1014.9,320,1001,320,987,320C973.7,320,960,320,946,320C932.6,320,919,320,905,320C891.4,320,878,320,864,320C850.3,320,837,320,823,320C809.1,320,795,320,782,320C768,320,754,320,741,320C726.9,320,713,320,699,320C685.7,320,672,320,658,320C644.6,320,631,320,617,320C603.4,320,590,320,576,320C562.3,320,549,320,535,320C521.1,320,507,320,494,320C480,320,466,320,453,320C438.9,320,425,320,411,320C397.7,320,384,320,370,320C356.6,320,343,320,329,320C315.4,320,302,320,288,320C274.3,320,261,320,247,320C233.1,320,219,320,206,320C192,320,178,320,165,320C150.9,320,137,320,123,320C109.7,320,96,320,82,320C68.6,320,55,320,41,320C27.4,320,14,320,7,320L0,320Z"></path></svg>